<svg width="475" height="332" viewBox="0 0 475 332" fill="none" xmlns="http://www.w3.org/2000/svg">
<path d="M380.359 332C328.091 332 285.719 328.767 285.719 324.779C285.719 320.792 328.091 317.559 380.359 317.559C432.628 317.559 475 320.792 475 324.779C475 328.767 432.628 332 380.359 332Z" fill="#E6E6E6"/>
<path d="M402.659 73.6648C386.188 66.6272 365.674 71.0861 345.64 74.1808C345.454 70.4331 343.194 65.8721 345.561 63.2575C348.437 60.081 348.172 56.7434 346.442 53.3866C342.016 44.8028 348.357 35.6691 354.758 28.0746C356.201 26.3666 358.025 25.0247 360.081 24.1578C362.137 23.2908 364.367 22.9233 366.592 23.085L378.45 23.936C381.336 24.143 384.09 25.2305 386.343 27.0528C388.597 28.8751 390.243 31.3454 391.061 34.1332V34.1332C393.892 38.0019 395.408 41.8599 394.454 45.6978C398.695 48.6095 399.407 52.1242 397.501 56.0865C395.885 58.5813 395.903 61.0097 397.575 63.3709C399.771 66.3813 401.454 69.738 402.553 73.3033L402.659 73.6648Z" fill="#2F2E41"/>
<path d="M11.2558 287.009H346.941C349.926 287.009 352.789 285.817 354.9 283.697C357.011 281.576 358.197 278.7 358.197 275.701C236.511 261.494 117.112 261.494 6.62804e-05 275.701C6.62804e-05 278.7 1.18593 281.576 3.29678 283.697C5.40764 285.817 8.27059 287.009 11.2558 287.009Z" fill="#2F2E41"/>
<path d="M6.62804e-05 276.366L358.197 275.701L316.683 205.529L316.484 205.196V50.5439C316.485 48.6668 316.117 46.808 315.402 45.0737C314.687 43.3394 313.639 41.7636 312.317 40.4362C310.996 39.1089 309.427 38.056 307.701 37.3377C305.975 36.6195 304.124 36.2498 302.256 36.25H57.9273C56.0587 36.2498 54.2085 36.6195 52.4821 37.3377C50.7557 38.056 49.1871 39.1089 47.8659 40.4362C46.5446 41.7636 45.4965 43.3394 44.7815 45.0737C44.0665 46.808 43.6986 48.6668 43.6987 50.5439V206.26L6.62804e-05 276.366Z" fill="#3F3D56"/>
<path d="M302.58 46.2275C303.809 46.2289 304.987 46.7199 305.856 47.5928C306.725 48.4656 307.213 49.6491 307.215 50.8835V191.894C307.213 193.128 306.725 194.311 305.856 195.184C304.987 196.057 303.809 196.548 302.58 196.55H55.6163C54.3876 196.548 53.2096 196.057 52.3408 195.184C51.4719 194.311 50.9831 193.128 50.9816 191.894V50.8835C50.9831 49.6491 51.4718 48.4657 52.3407 47.5928C53.2096 46.72 54.3876 46.229 55.6163 46.2275H302.58Z" fill="white"/>
<path d="M301.546 215.174C301.925 215.174 302.297 215.284 302.617 215.49C302.936 215.696 303.191 215.989 303.35 216.335L316.142 244.271C316.281 244.575 316.342 244.91 316.319 245.243C316.296 245.577 316.19 245.9 316.01 246.182C315.83 246.463 315.583 246.695 315.291 246.856C314.998 247.017 314.671 247.101 314.338 247.101H45.3353C44.9967 247.101 44.6638 247.014 44.3681 246.848C44.0724 246.682 43.8237 246.444 43.6457 246.154C43.4678 245.865 43.3664 245.535 43.3512 245.195C43.3361 244.855 43.4077 244.517 43.5591 244.213L57.4633 216.277C57.6273 215.945 57.8806 215.665 58.1945 215.47C58.5084 215.275 58.8704 215.173 59.2394 215.174H301.546Z" fill="#2F2E41"/>
<path d="M180.091 43.8994C178.446 43.8994 177.112 42.5593 177.112 40.9062C177.112 39.2532 178.446 37.9131 180.091 37.9131C181.737 37.9131 183.071 39.2532 183.071 40.9062C183.071 42.5593 181.737 43.8994 180.091 43.8994Z" fill="white"/>
<path d="M206.532 252.421C206.969 252.421 207.393 252.566 207.74 252.833C208.086 253.1 208.336 253.474 208.45 253.897L211.659 265.87C211.738 266.166 211.748 266.476 211.689 266.776C211.63 267.077 211.503 267.359 211.317 267.603C211.132 267.846 210.893 268.043 210.62 268.178C210.347 268.314 210.046 268.384 209.741 268.384H148.719C148.403 268.384 148.091 268.308 147.809 268.162C147.528 268.017 147.285 267.805 147.101 267.546C146.918 267.287 146.798 266.988 146.754 266.673C146.709 266.358 146.739 266.037 146.843 265.736L150.968 253.764C151.103 253.372 151.357 253.032 151.693 252.791C152.03 252.55 152.432 252.421 152.845 252.421H206.532Z" fill="#2F2E41"/>
<path d="M43.6988 202.868V205.528H316.683L316.478 205.196V202.868H43.6988Z" fill="#2F2E41"/>
<path d="M83.667 148.72H274.529C275.467 148.719 276.365 148.345 277.028 147.679C277.69 147.013 278.063 146.111 278.064 145.17V97.6074C278.063 96.666 277.69 95.7635 277.028 95.0978C276.365 94.4322 275.467 94.0577 274.529 94.0566H83.667C82.7299 94.0577 81.8316 94.4322 81.1689 95.0978C80.5063 95.7635 80.1336 96.666 80.1325 97.6074V145.17C80.1336 146.111 80.5063 147.013 81.1689 147.679C81.8316 148.345 82.7299 148.719 83.667 148.72V148.72ZM274.529 95.4769C275.092 95.4776 275.631 95.7022 276.028 96.1016C276.426 96.501 276.65 97.0425 276.65 97.6074V145.17C276.65 145.734 276.426 146.276 276.028 146.675C275.631 147.075 275.092 147.299 274.529 147.3H83.667C83.1047 147.299 82.5657 147.075 82.1681 146.675C81.7705 146.276 81.5469 145.734 81.5463 145.17V97.6074C81.5469 97.0425 81.7705 96.501 82.1681 96.1016C82.5657 95.7022 83.1047 95.4775 83.667 95.4769L274.529 95.4769Z" fill="#E6E6E6"/>
<path d="M244.873 134.027C236.922 134.027 230.476 127.551 230.476 119.563C230.476 111.575 236.922 105.1 244.873 105.1C252.825 105.1 259.271 111.575 259.271 119.563C259.271 127.551 252.825 134.027 244.873 134.027Z" fill="#E6E6E6"/>
<path d="M211.622 109.921C211.937 109.92 212.25 109.982 212.541 110.103C212.833 110.224 213.098 110.402 213.321 110.626C213.544 110.85 213.722 111.115 213.842 111.408C213.963 111.701 214.025 112.015 214.025 112.332C214.025 112.648 213.963 112.962 213.842 113.255C213.722 113.548 213.544 113.814 213.321 114.037C213.098 114.261 212.833 114.439 212.541 114.56C212.25 114.681 211.937 114.743 211.622 114.742H98.4979C97.8615 114.742 97.2512 114.488 96.8012 114.036C96.3512 113.584 96.0983 112.971 96.0983 112.332C96.0983 111.692 96.3512 111.079 96.8012 110.627C97.2512 110.175 97.8615 109.921 98.4979 109.921H211.622Z" fill="#E6E6E6"/>
<path d="M211.622 124.385C212.258 124.385 212.869 124.639 213.319 125.091C213.769 125.543 214.021 126.156 214.021 126.795C214.021 127.435 213.769 128.048 213.319 128.5C212.869 128.952 212.258 129.206 211.622 129.206H162.944C162.308 129.206 161.698 128.952 161.248 128.5C160.798 128.048 160.545 127.435 160.545 126.795C160.545 126.156 160.798 125.543 161.248 125.091C161.698 124.639 162.308 124.385 162.944 124.385H211.622Z" fill="#E6E6E6"/>
<path d="M317.153 125.36L352.435 144.204L352.882 128.501C341.366 126.57 330.41 123.207 320.279 117.733L316.589 108.574C316.187 107.576 315.533 106.701 314.693 106.033C313.852 105.365 312.853 104.929 311.793 104.766C310.734 104.604 309.651 104.721 308.65 105.106C307.649 105.491 306.765 106.131 306.085 106.963V106.963C305.09 108.18 304.592 109.732 304.693 111.304C304.794 112.876 305.486 114.35 306.629 115.429L317.153 125.36Z" fill="#FFB8B8"/>
<path d="M403.362 234.157C403.619 233.209 403.674 232.217 403.522 231.246C403.37 230.275 403.016 229.347 402.482 228.523L394.731 216.574C392.898 213.748 390.085 211.706 386.838 210.846C383.591 209.985 380.142 210.367 377.16 211.917V211.917C380.417 217.487 379.963 222.373 376.035 226.62C382.133 229.61 387.769 233.47 392.768 238.08C393.681 238.705 394.729 239.102 395.825 239.237C396.922 239.373 398.034 239.244 399.071 238.86C400.107 238.476 401.037 237.849 401.784 237.031C402.53 236.213 403.071 235.228 403.362 234.157V234.157Z" fill="#2F2E41"/>
<path d="M315.546 218.534C316.719 220.498 318.374 222.126 320.354 223.261C322.333 224.397 324.57 225.003 326.849 225.02L378.339 225.412L380.572 212.401L357.795 205.671L376.999 190.865L356.008 166.188L317.882 201.886C315.654 203.973 314.206 206.765 313.781 209.795C313.356 212.825 313.979 215.91 315.546 218.534V218.534Z" fill="#2F2E41"/>
<path d="M386.378 307.517H398.436C409.263 232.963 420.284 158.2 387.718 130.295L349.309 136.576L354.222 169.329L375.659 194.005L386.378 307.517Z" fill="#2F2E41"/>
<path d="M375.777 324.406C376.721 324.665 377.709 324.72 378.676 324.568C379.643 324.415 380.566 324.059 381.386 323.522L394.479 321.754C397.292 319.913 399.325 317.087 400.182 313.826C401.038 310.564 400.659 307.099 399.116 304.103C393.571 307.375 388.707 306.918 384.48 302.972C381.494 309.03 376.573 308.66 371.874 313.764C371.251 314.681 370.856 315.734 370.721 316.835C370.586 317.936 370.715 319.054 371.097 320.095C371.479 321.137 372.103 322.071 372.917 322.821C373.731 323.571 374.712 324.114 375.777 324.406V324.406Z" fill="#2F2E41"/>
<path d="M357.794 80.493L380.125 75.109C376.416 67.4826 376.111 58.9966 377.892 49.9838L362.707 49.5352C362.231 60.7428 360.792 71.2136 357.794 80.493Z" fill="#FFB8B8"/>
<path d="M351.657 150.085C367.913 161.213 379.399 150.466 388.164 133.884C386.946 123.737 388.918 111.595 392.571 98.4014C394.195 92.5821 393.589 86.3624 390.871 80.9704C388.154 75.5783 383.523 71.4057 377.892 69.2764V69.2764L358.688 77.3523C342.381 90.7052 339.172 105.169 345.289 120.424L351.657 150.085Z" fill="#D60B54"/>
<path d="M398.436 91.7097L416.301 101.132L384.591 119.975L380.179 130.909C379.885 131.639 379.741 132.421 379.758 133.208C379.774 133.995 379.95 134.771 380.274 135.488C380.599 136.205 381.065 136.848 381.645 137.377C382.225 137.907 382.906 138.313 383.647 138.57V138.57C384.489 138.861 385.387 138.953 386.271 138.838C387.155 138.723 388 138.404 388.74 137.906C389.48 137.408 390.096 136.745 390.539 135.968C390.981 135.191 391.239 134.322 391.291 133.428L391.737 125.808L432.04 112.447C433.397 111.997 434.636 111.242 435.66 110.24C436.685 109.238 437.469 108.015 437.953 106.664V106.664C438.659 104.694 438.695 102.544 438.055 100.551C437.416 98.5582 436.136 96.8347 434.418 95.6502L402.009 73.3145L398.436 91.7097Z" fill="#FFB8B8"/>
<path d="M380.572 93.5047C388.023 90.2245 394.798 93.7878 403.349 96.6453L404.689 72.8661C396.198 68.3196 388.102 67.0937 380.572 70.6228L380.572 93.5047Z" fill="#D60B54"/>
<path d="M371.659 61.3144C363.785 61.3144 357.402 54.9019 357.402 46.9917C357.402 39.0814 363.785 32.6689 371.659 32.6689C379.533 32.6689 385.917 39.0814 385.917 46.9917C385.917 54.9019 379.533 61.3144 371.659 61.3144Z" fill="#FFB8B8"/>
<path d="M354.603 45.1839C368.719 46.5728 379.475 44.2536 386.349 37.6501V32.332H355.801L354.603 45.1839Z" fill="#2F2E41"/>
</svg>
