<svg width="140" height="42" viewBox="0 0 140 42" fill="none" xmlns="http://www.w3.org/2000/svg">
<path d="M0 21C0 12.1634 7.16344 5 16 5V5C24.8366 5 32 12.1634 32 21V21C32 29.8366 24.8366 37 16 37H4.41379C1.97612 37 0 35.0239 0 32.5862V21Z" fill="url(#paint0_linear_7_124)"/>
<path d="M21.832 15.608L20.936 27H19.448L20.056 19.224L16.072 27H14.936L12.152 19.208L11.544 27H10.056L10.936 15.608H12.28L15.656 25.048L20.488 15.608H21.832Z" fill="white"/>
<path d="M62.504 12.912V30H59.768V19.392L55.232 30H53.192L48.632 19.512V30H45.896V12.912H48.344L54.224 26.28L60.056 12.912H62.504ZM76.7266 24.096H68.3746C68.4386 25.392 68.7586 26.352 69.3346 26.976C69.9266 27.584 70.7986 27.888 71.9506 27.888C73.2786 27.888 74.5106 27.456 75.6466 26.592L76.5106 28.656C75.9346 29.12 75.2226 29.496 74.3746 29.784C73.5426 30.056 72.6946 30.192 71.8306 30.192C69.8466 30.192 68.2866 29.632 67.1506 28.512C66.0146 27.392 65.4466 25.856 65.4466 23.904C65.4466 22.672 65.6946 21.576 66.1906 20.616C66.6866 19.656 67.3826 18.912 68.2786 18.384C69.1746 17.84 70.1906 17.568 71.3266 17.568C72.9906 17.568 74.3026 18.112 75.2626 19.2C76.2386 20.272 76.7266 21.752 76.7266 23.64V24.096ZM71.3986 19.728C70.5986 19.728 69.9426 19.968 69.4306 20.448C68.9346 20.912 68.6146 21.592 68.4706 22.488H74.1106C74.0146 21.576 73.7346 20.888 73.2706 20.424C72.8226 19.96 72.1986 19.728 71.3986 19.728Z" fill="#33C863"/>
<path d="M85.3631 30.216C84.0511 30.216 82.8191 30.04 81.6671 29.688C80.5311 29.336 79.5631 28.832 78.7631 28.176L79.8191 25.92C80.6511 26.544 81.5151 27.008 82.4111 27.312C83.3231 27.6 84.3151 27.744 85.3871 27.744C86.5711 27.744 87.4831 27.536 88.1231 27.12C88.7791 26.704 89.1071 26.12 89.1071 25.368C89.1071 24.728 88.8031 24.24 88.1951 23.904C87.6031 23.552 86.6191 23.224 85.2431 22.92C83.0991 22.456 81.5391 21.856 80.5631 21.12C79.5871 20.384 79.0991 19.312 79.0991 17.904C79.0991 16.896 79.3711 16 79.9151 15.216C80.4591 14.432 81.2271 13.816 82.2191 13.368C83.2271 12.92 84.3871 12.696 85.6991 12.696C86.8991 12.696 88.0351 12.88 89.1071 13.248C90.1951 13.6 91.0831 14.096 91.7711 14.736L90.7391 16.992C89.2191 15.776 87.5391 15.168 85.6991 15.168C84.5951 15.168 83.7231 15.4 83.0831 15.864C82.4431 16.312 82.1231 16.928 82.1231 17.712C82.1231 18.384 82.4031 18.896 82.9631 19.248C83.5391 19.6 84.5151 19.928 85.8911 20.232C87.3151 20.568 88.4751 20.936 89.3711 21.336C90.2671 21.72 90.9551 22.224 91.4351 22.848C91.9151 23.456 92.1551 24.224 92.1551 25.152C92.1551 26.176 91.8831 27.072 91.3391 27.84C90.7951 28.592 90.0111 29.176 88.9871 29.592C87.9631 30.008 86.7551 30.216 85.3631 30.216ZM98.5563 20.136V25.56C98.5563 26.984 99.2203 27.696 100.548 27.696C100.916 27.696 101.316 27.632 101.748 27.504V29.88C101.22 30.072 100.58 30.168 99.8283 30.168C98.4523 30.168 97.3963 29.784 96.6603 29.016C95.9243 28.248 95.5563 27.144 95.5563 25.704V20.136H93.2283V17.88H95.5563V14.928L98.5563 13.92V17.88H101.772V20.136H98.5563ZM109.426 30.192C108.194 30.192 107.106 29.936 106.162 29.424C105.234 28.912 104.514 28.184 104.002 27.24C103.506 26.28 103.258 25.16 103.258 23.88C103.258 22.6 103.506 21.488 104.002 20.544C104.514 19.584 105.234 18.848 106.162 18.336C107.106 17.824 108.194 17.568 109.426 17.568C110.642 17.568 111.714 17.824 112.642 18.336C113.57 18.848 114.282 19.584 114.778 20.544C115.29 21.488 115.546 22.6 115.546 23.88C115.546 25.16 115.29 26.28 114.778 27.24C114.282 28.184 113.57 28.912 112.642 29.424C111.714 29.936 110.642 30.192 109.426 30.192ZM109.402 27.84C110.426 27.84 111.202 27.512 111.73 26.856C112.274 26.184 112.546 25.192 112.546 23.88C112.546 22.584 112.274 21.6 111.73 20.928C111.186 20.24 110.418 19.896 109.426 19.896C108.418 19.896 107.642 20.24 107.098 20.928C106.554 21.6 106.282 22.584 106.282 23.88C106.282 25.192 106.546 26.184 107.074 26.856C107.618 27.512 108.394 27.84 109.402 27.84ZM124.757 17.592C125.221 17.592 125.621 17.656 125.957 17.784L125.933 20.52C125.421 20.312 124.893 20.208 124.349 20.208C123.325 20.208 122.541 20.504 121.997 21.096C121.469 21.688 121.205 22.472 121.205 23.448V30H118.229V21.312C118.229 20.032 118.165 18.888 118.037 17.88H120.845L121.085 20.016C121.389 19.232 121.869 18.632 122.525 18.216C123.181 17.8 123.925 17.592 124.757 17.592ZM138.097 24.096H129.745C129.809 25.392 130.129 26.352 130.705 26.976C131.297 27.584 132.169 27.888 133.321 27.888C134.649 27.888 135.881 27.456 137.017 26.592L137.881 28.656C137.305 29.12 136.593 29.496 135.745 29.784C134.913 30.056 134.065 30.192 133.201 30.192C131.217 30.192 129.657 29.632 128.521 28.512C127.385 27.392 126.817 25.856 126.817 23.904C126.817 22.672 127.065 21.576 127.561 20.616C128.057 19.656 128.753 18.912 129.649 18.384C130.545 17.84 131.561 17.568 132.697 17.568C134.361 17.568 135.673 18.112 136.633 19.2C137.609 20.272 138.097 21.752 138.097 23.64V24.096ZM132.769 19.728C131.969 19.728 131.313 19.968 130.801 20.448C130.305 20.912 129.985 21.592 129.841 22.488H135.481C135.385 21.576 135.105 20.888 134.641 20.424C134.193 19.96 133.569 19.728 132.769 19.728Z" fill="#252733"/>
<defs>
<linearGradient id="paint0_linear_7_124" x1="16" y1="5" x2="16" y2="37" gradientUnits="userSpaceOnUse">
<stop stop-color="#33C863"/>
<stop offset="0.510941" stop-color="#51ED83"/>
<stop offset="1" stop-color="#2CBD5B"/>
</linearGradient>
</defs>
</svg>
