<svg width="27" height="24" viewBox="0 0 27 24" fill="none" xmlns="http://www.w3.org/2000/svg">
<path d="M16.3775 13.5577C15.658 14.6361 14.2605 15.2036 12.8724 14.9811C11.4843 14.7585 10.3979 13.7928 10.1475 12.559C9.8972 11.3251 10.5356 10.0829 11.7488 9.44336" stroke="#323232" stroke-width="1.5" stroke-linecap="round" stroke-linejoin="round"/>
<path d="M20.2455 16.9966C18.3051 18.3048 15.9347 19.0099 13.4993 19.0033C9.46383 19.0672 5.73518 17.0957 3.87206 13.9132C3.2028 12.7074 3.2028 11.2934 3.87206 10.0876C4.80384 8.43821 6.28918 7.08695 8.12264 6.2207" stroke="#323232" stroke-width="1.5" stroke-linecap="round" stroke-linejoin="round"/>
<path d="M22.9804 14.135C23.0255 14.059 23.0843 13.9908 23.1269 13.9133C23.7962 12.7075 23.7962 11.2935 23.1269 10.0877C21.2638 6.90513 17.5352 4.93372 13.4997 4.9976C13.2467 4.9976 13.0007 5.02761 12.751 5.04224" stroke="#323232" stroke-width="1.5" stroke-linecap="round" stroke-linejoin="round"/>
<path d="M23.6291 20.0032L4.49609 2.99609" stroke="#323232" stroke-width="1.5" stroke-linecap="round" stroke-linejoin="round"/>
</svg>
