<svg width="27" height="24" viewBox="0 0 27 24" fill="none" xmlns="http://www.w3.org/2000/svg">
<path fill-rule="evenodd" clip-rule="evenodd" d="M3.37012 12.0005C3.37112 11.3372 3.54282 10.6829 3.87208 10.0877V10.0877C5.73518 6.90514 9.46384 4.93373 13.4993 4.9976C17.5348 4.93373 21.2635 6.90514 23.1266 10.0877V10.0877C23.7959 11.2935 23.7959 12.7075 23.1266 13.9133V13.9133C21.2635 17.0959 17.5348 19.0673 13.4993 19.0034C9.46384 19.0673 5.73518 17.0959 3.87208 13.9133V13.9133C3.54282 13.3181 3.37112 12.6638 3.37012 12.0005Z" stroke="#323232" stroke-width="1.5" stroke-linecap="round" stroke-linejoin="round"/>
<path d="M16.8759 12.0003C16.8759 13.6578 15.3642 15.0015 13.4995 15.0015C11.6347 15.0015 10.123 13.6578 10.123 12.0003C10.123 10.3427 11.6347 8.99902 13.4995 8.99902" stroke="#323232" stroke-width="1.5" stroke-linecap="round" stroke-linejoin="round"/>
</svg>
